<svg width="28" height="41" viewBox="0 0 28 41" fill="none" xmlns="http://www.w3.org/2000/svg">
<path d="M13.0354 1.81689C19.4016 1.81689 24.5627 6.97801 24.5627 13.3442C24.5627 17.8081 22.0245 21.6795 18.3135 23.5952" stroke="white" stroke-width="1.67063" stroke-miterlimit="10"/>
<path d="M1.61951 39.6844H26.5675L23.8745 32.3782L4.52305 1.81689H13.0911H1.61951V39.6844Z" stroke="white" stroke-width="1.67063" stroke-miterlimit="10"/>
<path d="M26.0641 40.3516L20.0265 35.5758L19.9374 35.5057C18.5741 33.5299 17.2577 31.5229 15.9591 29.5059C12.1701 23.5885 8.36773 17.4518 4.94629 11.3184C6.3808 13.2017 7.76742 15.1162 9.13733 17.0419C13.1936 22.7744 17.2655 28.7341 20.9732 34.6937L20.8183 34.5278L27.0709 39.0184L26.0652 40.3527L26.0641 40.3516Z" fill="white"/>
</svg>
